<mxfile host="app.diagrams.net" agent="Mozilla/5.0 (Macintosh; Intel Mac OS X 10_15_7) AppleWebKit/605.1.15 (KHTML, like Gecko) Version/17.4.1 Safari/605.1.15" version="26.0.10">
  <diagram name="Page-1" id="vlxKhmxQZWQA47swJ2uY">
    <mxGraphModel dx="984" dy="667" grid="1" gridSize="10" guides="1" tooltips="1" connect="1" arrows="1" fold="1" page="1" pageScale="1" pageWidth="827" pageHeight="1169" math="0" shadow="0">
      <root>
        <mxCell id="0" />
        <mxCell id="1" parent="0" />
        <mxCell id="AMxDKzFzZmhWvOo5ORpO-1" value="" style="rounded=0;whiteSpace=wrap;html=1;fillColor=none;strokeColor=#3333FF;strokeWidth=2;" vertex="1" parent="1">
          <mxGeometry x="20" y="340" width="880" height="420" as="geometry" />
        </mxCell>
        <mxCell id="AMxDKzFzZmhWvOo5ORpO-2" value="Vertical&lt;div&gt;&lt;div&gt;Container&lt;/div&gt;&lt;/div&gt;" style="rounded=0;whiteSpace=wrap;html=1;fillColor=none;strokeColor=#FF8000;strokeWidth=2;" vertex="1" parent="1">
          <mxGeometry x="312" y="226" width="120" height="60" as="geometry" />
        </mxCell>
        <mxCell id="AMxDKzFzZmhWvOo5ORpO-3" value="Object" style="rounded=0;whiteSpace=wrap;html=1;fillColor=none;strokeColor=#808080;strokeWidth=2;" vertex="1" parent="1">
          <mxGeometry x="510" y="240" width="120" height="60" as="geometry" />
        </mxCell>
        <mxCell id="AMxDKzFzZmhWvOo5ORpO-4" value="Horizontal&lt;div&gt;Container&lt;/div&gt;" style="rounded=0;whiteSpace=wrap;html=1;fillColor=none;strokeColor=#3333FF;strokeWidth=2;" vertex="1" parent="1">
          <mxGeometry x="50" y="230" width="120" height="60" as="geometry" />
        </mxCell>
        <mxCell id="AMxDKzFzZmhWvOo5ORpO-14" value="&lt;div&gt;&lt;br&gt;&lt;/div&gt;" style="rounded=0;whiteSpace=wrap;html=1;fillColor=none;strokeColor=#FF8000;strokeWidth=2;" vertex="1" parent="1">
          <mxGeometry x="40" y="360" width="850" height="390" as="geometry" />
        </mxCell>
        <mxCell id="AMxDKzFzZmhWvOo5ORpO-15" value="Header &amp;amp; Charts" style="text;html=1;align=center;verticalAlign=middle;whiteSpace=wrap;rounded=0;" vertex="1" parent="1">
          <mxGeometry x="105" y="330" width="140" height="30" as="geometry" />
        </mxCell>
        <mxCell id="AMxDKzFzZmhWvOo5ORpO-16" value="" style="rounded=0;whiteSpace=wrap;html=1;fillColor=none;strokeColor=#3333FF;strokeWidth=2;" vertex="1" parent="1">
          <mxGeometry x="50" y="370" width="820" height="40" as="geometry" />
        </mxCell>
        <mxCell id="AMxDKzFzZmhWvOo5ORpO-17" value="Titel" style="rounded=0;whiteSpace=wrap;html=1;fillColor=none;strokeColor=#808080;strokeWidth=2;" vertex="1" parent="1">
          <mxGeometry x="70" y="377.5" width="90" height="25" as="geometry" />
        </mxCell>
        <mxCell id="AMxDKzFzZmhWvOo5ORpO-18" value="Icon" style="rounded=0;whiteSpace=wrap;html=1;fillColor=none;strokeColor=#808080;strokeWidth=2;" vertex="1" parent="1">
          <mxGeometry x="681" y="376" width="70" height="25" as="geometry" />
        </mxCell>
        <mxCell id="AMxDKzFzZmhWvOo5ORpO-19" value="" style="rounded=0;whiteSpace=wrap;html=1;fillColor=none;strokeColor=#FF8000;strokeWidth=2;" vertex="1" parent="1">
          <mxGeometry x="60" y="420" width="200" height="320" as="geometry" />
        </mxCell>
        <mxCell id="AMxDKzFzZmhWvOo5ORpO-20" value="Flat type" style="text;html=1;align=center;verticalAlign=middle;whiteSpace=wrap;rounded=0;" vertex="1" parent="1">
          <mxGeometry x="90" y="420" width="140" height="30" as="geometry" />
        </mxCell>
        <mxCell id="AMxDKzFzZmhWvOo5ORpO-21" value="Chart" style="rounded=0;whiteSpace=wrap;html=1;fillColor=none;strokeColor=#808080;strokeWidth=2;" vertex="1" parent="1">
          <mxGeometry x="90" y="455" width="155" height="95" as="geometry" />
        </mxCell>
        <mxCell id="AMxDKzFzZmhWvOo5ORpO-24" value="Chart" style="rounded=0;whiteSpace=wrap;html=1;fillColor=none;strokeColor=#808080;strokeWidth=2;" vertex="1" parent="1">
          <mxGeometry x="80" y="635" width="165" height="75" as="geometry" />
        </mxCell>
        <mxCell id="AMxDKzFzZmhWvOo5ORpO-25" value="" style="rounded=0;whiteSpace=wrap;html=1;fillColor=none;strokeColor=#FF8000;strokeWidth=2;" vertex="1" parent="1">
          <mxGeometry x="270" y="420" width="600" height="320" as="geometry" />
        </mxCell>
        <mxCell id="AMxDKzFzZmhWvOo5ORpO-26" value="" style="rounded=0;whiteSpace=wrap;html=1;fillColor=none;strokeColor=#3333FF;strokeWidth=2;" vertex="1" parent="1">
          <mxGeometry x="280" y="430" width="570" height="100" as="geometry" />
        </mxCell>
        <mxCell id="AMxDKzFzZmhWvOo5ORpO-27" value="&lt;div&gt;&lt;br&gt;&lt;/div&gt;" style="rounded=0;whiteSpace=wrap;html=1;fillColor=none;strokeColor=#3333FF;strokeWidth=2;" vertex="1" parent="1">
          <mxGeometry x="280" y="540" width="570" height="100" as="geometry" />
        </mxCell>
        <mxCell id="AMxDKzFzZmhWvOo5ORpO-29" value="Timeseries" style="text;html=1;align=center;verticalAlign=middle;whiteSpace=wrap;rounded=0;" vertex="1" parent="1">
          <mxGeometry x="270" y="425" width="140" height="30" as="geometry" />
        </mxCell>
        <mxCell id="AMxDKzFzZmhWvOo5ORpO-30" value="Chart" style="rounded=0;whiteSpace=wrap;html=1;fillColor=none;strokeColor=#808080;strokeWidth=2;" vertex="1" parent="1">
          <mxGeometry x="310" y="450" width="490" height="70" as="geometry" />
        </mxCell>
        <mxCell id="AMxDKzFzZmhWvOo5ORpO-34" value="Chart" style="rounded=0;whiteSpace=wrap;html=1;fillColor=none;strokeColor=#808080;strokeWidth=2;" vertex="1" parent="1">
          <mxGeometry x="312" y="560" width="470" height="60" as="geometry" />
        </mxCell>
        <mxCell id="AMxDKzFzZmhWvOo5ORpO-35" value="Location" style="text;html=1;align=center;verticalAlign=middle;whiteSpace=wrap;rounded=0;" vertex="1" parent="1">
          <mxGeometry x="280" y="535" width="140" height="30" as="geometry" />
        </mxCell>
        <mxCell id="AMxDKzFzZmhWvOo5ORpO-36" value="Icon" style="rounded=0;whiteSpace=wrap;html=1;fillColor=none;strokeColor=#808080;strokeWidth=2;" vertex="1" parent="1">
          <mxGeometry x="770" y="377.5" width="70" height="25" as="geometry" />
        </mxCell>
        <mxCell id="AMxDKzFzZmhWvOo5ORpO-37" value="Level" style="text;html=1;align=center;verticalAlign=middle;whiteSpace=wrap;rounded=0;" vertex="1" parent="1">
          <mxGeometry x="90" y="570" width="140" height="30" as="geometry" />
        </mxCell>
        <mxCell id="AMxDKzFzZmhWvOo5ORpO-38" value="&lt;div&gt;&lt;br&gt;&lt;/div&gt;" style="rounded=0;whiteSpace=wrap;html=1;fillColor=none;strokeColor=#3333FF;strokeWidth=2;" vertex="1" parent="1">
          <mxGeometry x="280" y="660" width="570" height="70" as="geometry" />
        </mxCell>
        <mxCell id="AMxDKzFzZmhWvOo5ORpO-39" value="Floor area" style="text;html=1;align=center;verticalAlign=middle;whiteSpace=wrap;rounded=0;" vertex="1" parent="1">
          <mxGeometry x="280" y="657.5" width="140" height="30" as="geometry" />
        </mxCell>
        <mxCell id="AMxDKzFzZmhWvOo5ORpO-40" value="Chart" style="rounded=0;whiteSpace=wrap;html=1;fillColor=none;strokeColor=#808080;strokeWidth=2;" vertex="1" parent="1">
          <mxGeometry x="320" y="680" width="470" height="45" as="geometry" />
        </mxCell>
      </root>
    </mxGraphModel>
  </diagram>
</mxfile>
